<mxfile host="app.diagrams.net" agent="Mozilla/5.0 (Windows NT 10.0; Win64; x64) AppleWebKit/537.36 (KHTML, like Gecko) Chrome/130.0.0.0 Safari/537.36" version="24.8.6">
  <diagram name="Trang-1" id="zy617T82AigDiKFb2hlr">
    <mxGraphModel dx="1050" dy="565" grid="1" gridSize="10" guides="1" tooltips="1" connect="1" arrows="1" fold="1" page="1" pageScale="1" pageWidth="827" pageHeight="1169" math="0" shadow="0">
      <root>
        <mxCell id="0" />
        <mxCell id="1" parent="0" />
        <mxCell id="263ZgdtCde0kPG2q6HkD-3" style="edgeStyle=orthogonalEdgeStyle;rounded=0;orthogonalLoop=1;jettySize=auto;html=1;entryX=0.5;entryY=0;entryDx=0;entryDy=0;" edge="1" parent="1" source="263ZgdtCde0kPG2q6HkD-1" target="263ZgdtCde0kPG2q6HkD-2">
          <mxGeometry relative="1" as="geometry" />
        </mxCell>
        <mxCell id="263ZgdtCde0kPG2q6HkD-1" value="start" style="ellipse;whiteSpace=wrap;html=1;" vertex="1" parent="1">
          <mxGeometry x="330" y="40" width="150" height="70" as="geometry" />
        </mxCell>
        <mxCell id="263ZgdtCde0kPG2q6HkD-5" style="edgeStyle=orthogonalEdgeStyle;rounded=0;orthogonalLoop=1;jettySize=auto;html=1;entryX=0.5;entryY=0;entryDx=0;entryDy=0;" edge="1" parent="1" source="263ZgdtCde0kPG2q6HkD-2" target="263ZgdtCde0kPG2q6HkD-4">
          <mxGeometry relative="1" as="geometry" />
        </mxCell>
        <mxCell id="263ZgdtCde0kPG2q6HkD-2" value="nhập vào 2 số a và b" style="shape=parallelogram;perimeter=parallelogramPerimeter;whiteSpace=wrap;html=1;fixedSize=1;" vertex="1" parent="1">
          <mxGeometry x="327.5" y="190" width="155" height="50" as="geometry" />
        </mxCell>
        <mxCell id="263ZgdtCde0kPG2q6HkD-8" style="edgeStyle=orthogonalEdgeStyle;rounded=0;orthogonalLoop=1;jettySize=auto;html=1;entryX=1;entryY=0.5;entryDx=0;entryDy=0;" edge="1" parent="1" source="263ZgdtCde0kPG2q6HkD-4" target="263ZgdtCde0kPG2q6HkD-7">
          <mxGeometry relative="1" as="geometry" />
        </mxCell>
        <mxCell id="263ZgdtCde0kPG2q6HkD-13" style="edgeStyle=orthogonalEdgeStyle;rounded=0;orthogonalLoop=1;jettySize=auto;html=1;entryX=0.5;entryY=0;entryDx=0;entryDy=0;" edge="1" parent="1" source="263ZgdtCde0kPG2q6HkD-4" target="263ZgdtCde0kPG2q6HkD-12">
          <mxGeometry relative="1" as="geometry" />
        </mxCell>
        <mxCell id="263ZgdtCde0kPG2q6HkD-4" value="so sánh a và b" style="rhombus;whiteSpace=wrap;html=1;" vertex="1" parent="1">
          <mxGeometry x="335" y="300" width="140" height="80" as="geometry" />
        </mxCell>
        <mxCell id="263ZgdtCde0kPG2q6HkD-10" style="edgeStyle=orthogonalEdgeStyle;rounded=0;orthogonalLoop=1;jettySize=auto;html=1;" edge="1" parent="1" source="263ZgdtCde0kPG2q6HkD-6">
          <mxGeometry relative="1" as="geometry">
            <mxPoint x="540" y="340" as="targetPoint" />
          </mxGeometry>
        </mxCell>
        <mxCell id="263ZgdtCde0kPG2q6HkD-6" value="a &amp;gt;= b" style="rounded=0;whiteSpace=wrap;html=1;" vertex="1" parent="1">
          <mxGeometry x="550" y="310" width="120" height="60" as="geometry" />
        </mxCell>
        <mxCell id="263ZgdtCde0kPG2q6HkD-7" value="a &amp;lt; b" style="rounded=0;whiteSpace=wrap;html=1;" vertex="1" parent="1">
          <mxGeometry x="160" y="310" width="120" height="60" as="geometry" />
        </mxCell>
        <mxCell id="263ZgdtCde0kPG2q6HkD-9" style="edgeStyle=orthogonalEdgeStyle;rounded=0;orthogonalLoop=1;jettySize=auto;html=1;" edge="1" parent="1" source="263ZgdtCde0kPG2q6HkD-4">
          <mxGeometry relative="1" as="geometry">
            <mxPoint x="540" y="340" as="targetPoint" />
          </mxGeometry>
        </mxCell>
        <mxCell id="263ZgdtCde0kPG2q6HkD-12" value="end" style="ellipse;whiteSpace=wrap;html=1;" vertex="1" parent="1">
          <mxGeometry x="335" y="440" width="140" height="80" as="geometry" />
        </mxCell>
      </root>
    </mxGraphModel>
  </diagram>
</mxfile>
